<svg width="18" height="18" viewBox="0 0 18 18" fill="none" xmlns="http://www.w3.org/2000/svg">
<path d="M6.075 18C5.80833 18 5.55417 17.95 5.3125 17.85C5.07083 17.75 4.85833 17.6083 4.675 17.425L0.575 13.325C0.391667 13.1417 0.25 12.9292 0.15 12.6875C0.05 12.4458 0 12.1917 0 11.925V6.075C0 5.80833 0.05 5.55417 0.15 5.3125C0.25 5.07083 0.391667 4.85833 0.575 4.675L4.675 0.575C4.85833 0.391667 5.07083 0.25 5.3125 0.15C5.55417 0.05 5.80833 0 6.075 0H11.925C12.1917 0 12.4458 0.05 12.6875 0.15C12.9292 0.25 13.1417 0.391667 13.325 0.575L17.425 4.675C17.6083 4.85833 17.75 5.07083 17.85 5.3125C17.95 5.55417 18 5.80833 18 6.075V11.925C18 12.1917 17.95 12.4458 17.85 12.6875C17.75 12.9292 17.6083 13.1417 17.425 13.325L13.325 17.425C13.1417 17.6083 12.9292 17.75 12.6875 17.85C12.4458 17.95 12.1917 18 11.925 18H6.075ZM6.1 16H11.9L16 11.9V6.1L11.9 2H6.1L2 6.1V11.9L6.1 16ZM9 10.4L11.15 12.55C11.3333 12.7333 11.5667 12.825 11.85 12.825C12.1333 12.825 12.3667 12.7333 12.55 12.55C12.7333 12.3667 12.825 12.1333 12.825 11.85C12.825 11.5667 12.7333 11.3333 12.55 11.15L10.4 9L12.55 6.85C12.7333 6.66667 12.825 6.43333 12.825 6.15C12.825 5.86667 12.7333 5.63333 12.55 5.45C12.3667 5.26667 12.1333 5.175 11.85 5.175C11.5667 5.175 11.3333 5.26667 11.15 5.45L9 7.6L6.85 5.45C6.66667 5.26667 6.43333 5.175 6.15 5.175C5.86667 5.175 5.63333 5.26667 5.45 5.45C5.26667 5.63333 5.175 5.86667 5.175 6.15C5.175 6.43333 5.26667 6.66667 5.45 6.85L7.6 9L5.45 11.15C5.26667 11.3333 5.175 11.5667 5.175 11.85C5.175 12.1333 5.26667 12.3667 5.45 12.55C5.63333 12.7333 5.86667 12.825 6.15 12.825C6.43333 12.825 6.66667 12.7333 6.85 12.55L9 10.4Z" fill="#E21D12"/>
</svg>
