<svg width="40" height="40" viewBox="0 0 40 40" fill="none" xmlns="http://www.w3.org/2000/svg">
<path d="M0 20C0 8.95431 8.95431 0 20 0C31.0457 0 40 8.95431 40 20C40 31.0457 31.0457 40 20 40C8.95431 40 0 31.0457 0 20Z" fill="white"/>
<rect x="16.6854" y="17.1605" width="5.64578" height="11.6249" rx="1.23036" fill="white" stroke="#091E42" stroke-width="0.357224" stroke-linecap="round"/>
<path d="M16.4585 24.3071V20.6567H22.5852C22.1238 22.5286 19.3723 24.4082 16.4585 24.3071Z" fill="#7E7E7E" fill-opacity="0.45"/>
<path d="M15.7536 16.6136C15.7536 17.6548 14.8118 18.5294 13.6103 18.5294C12.4088 18.5294 11.4669 17.6548 11.4669 16.6136C11.4669 15.5723 12.4088 14.6977 13.6103 14.6977C14.8118 14.6977 15.7536 15.5723 15.7536 16.6136Z" fill="white" stroke="#091E42" stroke-width="0.357224"/>
<path d="M23.1661 16.6131C23.1661 17.6543 24.1079 18.529 25.3094 18.529C26.5109 18.529 27.4527 17.6543 27.4527 16.6131C27.4527 15.5718 26.5109 14.6972 25.3094 14.6972C24.1079 14.6972 23.1661 15.5718 23.1661 16.6131Z" fill="white" stroke="#091E42" stroke-width="0.357224"/>
<path d="M25.3986 16.2413C25.3986 18.054 24.8693 19.4353 23.8852 20.3647C22.8996 21.2957 21.432 21.7978 19.5071 21.7978C17.5822 21.7978 16.0899 21.2956 15.0801 20.3634C14.0725 19.4331 13.5209 18.0518 13.5209 16.2413C13.5209 14.4269 14.0755 12.5334 15.1041 11.098C16.1305 9.66567 17.6219 8.69668 19.5071 8.69668C21.3916 8.69668 22.8589 9.66499 23.8616 11.0964C24.8668 12.5314 25.3986 14.4253 25.3986 16.2413Z" fill="white" stroke="#091E42" stroke-width="0.357224" stroke-linecap="round"/>
<circle cx="23.0421" cy="15.6786" r="0.178612" fill="white"/>
<path d="M12.3152 11.1318C12.1687 9.16442 12.7171 8.14598 14.3692 7.7449C14.3692 7.7449 19.281 2.88743 23.6124 6.09604C27.9437 9.30464 25.2645 14.7595 25.2645 14.7595C24.2375 13.378 23.7879 13.1011 23.8803 11.3546C20.1435 12.4752 18.5859 12.1433 16.5126 9.83941C16.2429 11.3269 15.9321 11.8629 14.8604 12.4868C15.0522 13.5842 13.9227 14.5367 13.6101 14.8486C12.6131 13.7575 12.4244 12.9593 12.3152 11.1318Z" fill="#091E42"/>
<path d="M16.3626 24.8496C16.4034 24.8307 16.4628 24.8458 16.4924 24.8972C17.9509 27.424 21.4876 27.2257 22.5876 24.9199C22.6171 24.8581 22.6837 24.8398 22.7266 24.8591C25.1659 25.9621 26.7676 27.1351 27.8613 28.6671C28.9562 30.2007 29.5554 32.1125 29.9541 34.7194C29.9623 34.7733 29.9201 34.8217 29.8671 34.8217H9.06009C9.00715 34.8217 8.96489 34.7731 8.97336 34.7192C9.404 31.9819 10.1125 30.0475 11.2734 28.5345C12.4345 27.0213 14.0615 25.9121 16.3626 24.8496Z" fill="white" stroke="#091E42" stroke-width="0.357224" stroke-linecap="round" stroke-linejoin="round"/>
<path d="M18.5139 26.6992H20.5029V34.8196H18.5139V26.6992Z" fill="#091E42"/>
<ellipse cx="19.5085" cy="29.9476" rx="0.54244" ry="0.541359" fill="white" fill-opacity="0.5"/>
<ellipse cx="19.5085" cy="32.2938" rx="0.54244" ry="0.54136" fill="white" fill-opacity="0.5"/>
<rect x="22.2207" y="30.4893" width="4.97236" height="1.08272" rx="0.541359" fill="#091E42"/>
<path d="M8.84277 34.9949L9.19452 34.571L29.7145 34.5493L29.9561 35.0393L8.84277 34.9949Z" fill="white"/>
<path d="M20 39C9.50659 39 1 30.4934 1 20H-1C-1 31.598 8.40202 41 20 41V39ZM39 20C39 30.4934 30.4934 39 20 39V41C31.598 41 41 31.598 41 20H39ZM20 1C30.4934 1 39 9.50659 39 20H41C41 8.40202 31.598 -1 20 -1V1ZM20 -1C8.40202 -1 -1 8.40202 -1 20H1C1 9.50659 9.50659 1 20 1V-1Z" fill="#DFE1E5"/>
</svg>
