<svg width="20" height="11" viewBox="0 0 20 11" fill="none" xmlns="http://www.w3.org/2000/svg">
<path d="M9.99984 6.95833L16.4998 0.458333C16.8054 0.152778 17.1943 -9.16725e-08 17.6665 -7.1031e-08C18.1387 -5.03895e-08 18.5276 0.152778 18.8332 0.458333C19.1387 0.763889 19.2915 1.15278 19.2915 1.625C19.2915 2.09722 19.1387 2.48611 18.8332 2.79167L11.1665 10.4583C10.9998 10.625 10.8193 10.7431 10.6248 10.8125C10.4304 10.8819 10.2221 10.9167 9.99984 10.9167C9.77761 10.9167 9.56928 10.8819 9.37484 10.8125C9.18039 10.7431 8.99984 10.625 8.83317 10.4583L1.1665 2.79167C0.860948 2.48611 0.70817 2.09722 0.70817 1.625C0.70817 1.15278 0.860949 0.763888 1.1665 0.458333C1.47206 0.152777 1.86095 -7.61914e-07 2.33317 -7.41272e-07C2.80539 -7.20631e-07 3.19428 0.152777 3.49984 0.458333L9.99984 6.95833Z" fill="#495973"/>
</svg>
