<svg width="24" height="24" viewBox="0 0 24 24" fill="none" xmlns="http://www.w3.org/2000/svg">
<mask id="mask0_26012_171" style="mask-type:alpha" maskUnits="userSpaceOnUse" x="0" y="0" width="24" height="24">
<rect width="24" height="24" fill="#D9D9D9"/>
</mask>
<g mask="url(#mask0_26012_171)">
<path d="M3.97501 19.8001L3.12501 19.4501C2.60834 19.2335 2.26251 18.8585 2.08751 18.3251C1.91251 17.7918 1.94167 17.2668 2.17501 16.7501L3.97501 12.8501V19.8001ZM7.97501 22.0001C7.42501 22.0001 6.95417 21.8043 6.56251 21.4126C6.17084 21.021 5.97501 20.5501 5.97501 20.0001V14.0001L8.62501 21.3501C8.67501 21.4668 8.72501 21.5793 8.77501 21.6876C8.82501 21.796 8.89167 21.9001 8.97501 22.0001H7.97501ZM13.125 21.9001C12.5917 22.1001 12.075 22.0751 11.575 21.8251C11.075 21.5751 10.725 21.1835 10.525 20.6501L6.07501 8.45013C5.87501 7.9168 5.89167 7.39596 6.12501 6.88763C6.35834 6.3793 6.74167 6.03346 7.27501 5.85013L14.825 3.10013C15.3583 2.90013 15.875 2.92513 16.375 3.17513C16.875 3.42513 17.225 3.8168 17.425 4.35013L21.875 16.5501C22.075 17.0835 22.0583 17.6043 21.825 18.1126C21.5917 18.621 21.2083 18.9668 20.675 19.1501L13.125 21.9001ZM10.975 10.0001C11.2583 10.0001 11.4958 9.9043 11.6875 9.71263C11.8792 9.52096 11.975 9.28346 11.975 9.00013C11.975 8.7168 11.8792 8.4793 11.6875 8.28763C11.4958 8.09596 11.2583 8.00013 10.975 8.00013C10.6917 8.00013 10.4542 8.09596 10.2625 8.28763C10.0708 8.4793 9.97501 8.7168 9.97501 9.00013C9.97501 9.28346 10.0708 9.52096 10.2625 9.71263C10.4542 9.9043 10.6917 10.0001 10.975 10.0001ZM12.425 20.0001L19.975 17.2501L15.525 5.00013L7.97501 7.75013L12.425 20.0001Z" fill="#A271F3"/>
</g>
</svg>
