<svg width="239" height="182" viewBox="0 0 239 182" fill="none" xmlns="http://www.w3.org/2000/svg">
<path d="M18.5481 50.7141C17.7843 48.44 19.0087 45.9773 21.2829 45.2135L114.918 13.7653C117.192 13.0015 119.655 14.2259 120.419 16.5L161.447 138.659C162.211 140.933 160.986 143.396 158.712 144.16L65.0769 175.608C62.8028 176.372 60.34 175.147 59.5762 172.873L18.5481 50.7141Z" fill="#7F8A9D"/>
<path d="M7.80228 45.3411C7.03849 43.0669 8.26287 40.6042 10.537 39.8404L104.172 8.39224C106.446 7.62845 108.909 8.85284 109.673 11.127L150.701 133.286C151.465 135.56 150.24 138.023 147.966 138.787L54.3311 170.235C52.0569 170.999 49.5942 169.774 48.8304 167.5L7.80228 45.3411Z" fill="white"/>
<path fill-rule="evenodd" clip-rule="evenodd" d="M9.15401 35.7226L102.789 4.27441C107.337 2.74683 112.263 5.1956 113.791 9.7439L154.819 131.903C156.346 136.451 153.897 141.377 149.349 142.904L55.714 174.352C51.1657 175.88 46.2402 173.431 44.7126 168.883L3.68452 46.7239C2.15693 42.1756 4.60571 37.2502 9.15401 35.7226ZM10.537 39.8403C8.26283 40.6041 7.03844 43.0668 7.80223 45.341L48.8304 167.5C49.5942 169.774 52.0569 170.998 54.331 170.235L147.966 138.786C150.24 138.023 151.465 135.56 150.701 133.286L109.673 11.1269C108.909 8.85272 106.446 7.62834 104.172 8.39213L10.537 39.8403Z" fill="#7F8A9D"/>
<path fill-rule="evenodd" clip-rule="evenodd" d="M35.8421 63.0823C35.4602 61.9452 36.0724 60.7138 37.2095 60.3319L92.9836 41.5997C94.1207 41.2178 95.3521 41.83 95.734 42.9671C96.1159 44.1041 95.5037 45.3355 94.3666 45.7174L38.5925 64.4496C37.4554 64.8315 36.224 64.2193 35.8421 63.0823Z" fill="#7F8A9D"/>
<path fill-rule="evenodd" clip-rule="evenodd" d="M40.2895 76.3256C39.9076 75.1885 40.5198 73.9572 41.6569 73.5753L97.431 54.843C98.5681 54.4611 99.7995 55.0733 100.181 56.2104C100.563 57.3475 99.9511 58.5789 98.814 58.9608L43.0398 77.693C41.9028 78.0749 40.6714 77.4627 40.2895 76.3256Z" fill="#7F8A9D"/>
<path fill-rule="evenodd" clip-rule="evenodd" d="M44.7384 89.5692C44.3565 88.4321 44.9687 87.2008 46.1058 86.8189L101.88 68.0867C103.017 67.7048 104.248 68.3169 104.63 69.454C105.012 70.5911 104.4 71.8225 103.263 72.2044L47.4888 90.9366C46.3517 91.3185 45.1203 90.7063 44.7384 89.5692Z" fill="#7F8A9D"/>
<path fill-rule="evenodd" clip-rule="evenodd" d="M49.1859 102.812C48.804 101.675 49.4162 100.444 50.5532 100.062L106.327 81.3297C107.464 80.9478 108.696 81.56 109.078 82.6971C109.46 83.8342 108.847 85.0656 107.71 85.4474L51.9362 104.18C50.7991 104.562 49.5678 103.949 49.1859 102.812Z" fill="#7F8A9D"/>
<path fill-rule="evenodd" clip-rule="evenodd" d="M53.6332 116.055C53.2513 114.918 53.8635 113.687 55.0006 113.305L110.775 94.5726C111.912 94.1907 113.143 94.8028 113.525 95.9399C113.907 97.077 113.295 98.3084 112.158 98.6903L56.3836 117.422C55.2465 117.804 54.0151 117.192 53.6332 116.055Z" fill="#7F8A9D"/>
<path fill-rule="evenodd" clip-rule="evenodd" d="M84.7154 120.335C85.098 121.472 84.4866 122.704 83.3498 123.086L60.8323 130.665C59.6955 131.048 58.4637 130.437 58.0811 129.3C57.6984 128.163 58.3098 126.931 59.4466 126.549L81.9641 118.969C83.1009 118.587 84.3327 119.198 84.7154 120.335Z" fill="#7F8A9D"/>
<path d="M128.77 16.4425C129.402 14.1283 131.791 12.7646 134.105 13.3966L229.391 39.4196C231.705 40.0517 233.069 42.4401 232.437 44.7543L198.486 169.066C197.854 171.381 195.466 172.744 193.151 172.112L97.8659 146.089C95.5517 145.457 94.188 143.069 94.82 140.755L128.77 16.4425Z" fill="white"/>
<path fill-rule="evenodd" clip-rule="evenodd" d="M135.249 9.20627L230.535 35.2293C235.163 36.4934 237.891 41.2702 236.627 45.8987L202.676 170.211C201.412 174.839 196.635 177.567 192.007 176.303L96.7215 150.279C92.093 149.015 89.3656 144.239 90.6297 139.61L124.58 15.2981C125.844 10.6696 130.621 7.94221 135.249 9.20627ZM134.105 13.3966C131.791 12.7645 129.402 14.1282 128.77 16.4425L94.82 140.754C94.1879 143.069 95.5516 145.457 97.8659 146.089L193.151 172.112C195.466 172.744 197.854 171.381 198.486 169.066L232.436 44.7543C233.068 42.4401 231.705 40.0516 229.391 39.4196L134.105 13.3966Z" fill="#7F8A9D"/>
<path fill-rule="evenodd" clip-rule="evenodd" d="M175.249 124.879C176.088 125.116 176.704 125.833 176.813 126.698L179.495 148.028C179.645 149.218 178.801 150.304 177.611 150.454C176.421 150.604 175.335 149.76 175.185 148.57L173.142 132.324L162.782 145.221C162.031 146.156 160.664 146.305 159.729 145.554C158.794 144.803 158.644 143.436 159.396 142.501L172.964 125.609C173.51 124.929 174.41 124.641 175.249 124.879Z" fill="#7F8A9D"/>
<path fill-rule="evenodd" clip-rule="evenodd" d="M165.04 136.32C165.356 135.163 166.55 134.481 167.707 134.797L176.77 137.273C177.928 137.589 178.609 138.783 178.293 139.94C177.977 141.097 176.783 141.779 175.626 141.463L166.563 138.988C165.406 138.672 164.724 137.477 165.04 136.32Z" fill="#7F8A9D"/>
<path fill-rule="evenodd" clip-rule="evenodd" d="M188.273 136.552C189.431 136.868 190.112 138.062 189.796 139.219L188.089 145.47C187.773 146.627 186.579 147.309 185.422 146.993C184.265 146.677 183.583 145.482 183.899 144.325L185.606 138.075C185.922 136.918 187.116 136.236 188.273 136.552Z" fill="#7F8A9D"/>
<path fill-rule="evenodd" clip-rule="evenodd" d="M192.068 143.197C191.752 144.355 190.557 145.036 189.4 144.72L183.15 143.013C181.993 142.697 181.311 141.503 181.627 140.346C181.943 139.189 183.137 138.507 184.294 138.823L190.545 140.53C191.702 140.846 192.384 142.04 192.068 143.197Z" fill="#7F8A9D"/>
<path d="M192.067 85.6017C193.961 84.5207 194.619 82.1095 193.538 80.2161C192.457 78.3227 190.046 77.6642 188.152 78.7452L164.948 91.9943C162.864 93.1838 160.211 92.4592 159.022 90.3758L151.595 77.3677C150.514 75.4743 148.102 74.8158 146.209 75.8968C144.316 76.9779 143.657 79.3891 144.738 81.2824L154.316 98.0581C154.318 98.0607 154.317 98.064 154.314 98.0655C154.312 98.0669 154.311 98.0702 154.312 98.0728L158.222 104.92C158.223 104.923 158.227 104.923 158.229 104.922L158.229 104.922C158.232 104.92 158.235 104.921 158.236 104.924C158.238 104.926 158.241 104.927 158.244 104.926L165.091 101.016C165.093 101.015 165.094 101.012 165.093 101.009C165.091 101.007 165.092 101.003 165.095 101.002L192.067 85.6017Z" fill="white"/>
<path fill-rule="evenodd" clip-rule="evenodd" d="M162.794 88.2221L185.999 74.9731C189.975 72.7025 195.04 74.0857 197.31 78.0623C199.581 82.039 198.198 87.1034 194.221 89.3739L167.505 104.628C167.42 104.684 167.334 104.738 167.245 104.788L160.397 108.698C159.362 109.289 158.187 109.408 157.12 109.123C156.03 108.837 155.052 108.129 154.45 107.074L150.54 100.227C150.489 100.137 150.441 100.045 150.397 99.9534L140.966 83.4362C138.695 79.4595 140.079 74.3952 144.055 72.1246C148.032 69.8541 153.096 71.2372 155.367 75.2139L162.794 88.2221ZM193.538 80.2161C194.619 82.1095 193.961 84.5207 192.067 85.6017L165.095 101.002C165.092 101.003 165.091 101.007 165.093 101.009C165.093 101.01 165.094 101.011 165.094 101.012C165.094 101.014 165.093 101.015 165.091 101.016L158.244 104.926C158.241 104.927 158.238 104.926 158.236 104.924C158.235 104.921 158.232 104.92 158.229 104.922L158.229 104.922C158.227 104.923 158.223 104.923 158.222 104.92L154.312 98.0728C154.311 98.0702 154.312 98.067 154.314 98.0655C154.317 98.064 154.318 98.0607 154.316 98.0581L144.738 81.2824C143.657 79.3891 144.316 76.9779 146.209 75.8968C148.102 74.8158 150.514 75.4743 151.595 77.3677L159.022 90.3759C160.211 92.4592 162.864 93.1838 164.948 91.9943L188.152 78.7453C190.046 77.6642 192.457 78.3227 193.538 80.2161Z" fill="#7F8A9D"/>
</svg>
