<svg width="143" height="149" viewBox="0 0 143 149" fill="none" xmlns="http://www.w3.org/2000/svg">
<path d="M87.2793 49.3104C94.1827 44.3793 98.6207 36.4897 98.6207 27.1207C98.6207 12.3276 86.2931 0 71.5 0C56.7069 0 44.3793 12.3276 44.3793 27.1207C44.3793 36.4897 48.8172 44.3793 56.2138 49.3104C49.3103 54.2414 44.8724 62.131 44.8724 71.5V143.493C44.8724 146.452 46.8448 148.424 49.8034 148.424C52.2689 148.424 54.7345 146.452 54.7345 143.493V71.9931C54.7345 62.6242 62.131 54.7345 71.5 54.7345C80.8689 54.7345 88.7586 62.6242 88.7586 71.9931V143.986C88.7586 146.945 90.731 148.917 93.6896 148.917C96.1552 148.917 98.6207 146.945 98.6207 143.986V71.9931C98.6207 62.6242 94.1827 54.2414 87.2793 49.3104ZM71.5 44.8724C62.131 44.8724 54.2413 36.9828 54.2413 27.6138C54.2413 18.2448 62.131 10.3552 71.5 10.3552C80.8689 10.3552 88.7586 18.2448 88.7586 27.6138C88.7586 36.9828 80.8689 44.3793 71.5 44.8724Z" fill="#7F8A9D"/>
<path d="M143 91.7178V143.987C143 146.945 140.534 148.918 138.069 148.918C135.11 148.918 133.138 146.945 133.138 143.987V91.7178C133.138 82.3488 125.248 74.4592 115.879 74.4592C115.386 74.4592 115.386 74.4592 114.893 74.4592C112.428 73.9661 110.948 71.9936 110.948 69.5281C110.948 67.0626 112.428 65.0902 114.893 64.5971C115.386 64.5971 115.386 64.5971 115.879 64.5971C125.248 64.5971 132.645 56.7074 132.645 47.3385C132.645 37.9695 124.755 30.0798 115.386 30.0798C112.428 30.0798 110.455 28.1074 110.455 25.1488C110.455 22.6833 112.428 20.2178 115.386 20.2178C130.179 20.2178 142.507 32.5454 142.507 47.3385C142.507 56.7074 138.069 64.5971 131.165 69.5281C138.562 73.9661 143 82.3488 143 91.7178Z" fill="#7F8A9D"/>
<path d="M32.0517 69.5281C32.0517 71.9936 30.5724 73.9661 28.1069 74.4592H27.6138H27.1207C17.7517 74.4592 10.3552 82.3488 10.3552 91.7178V143.987C10.3552 146.945 7.88966 148.918 5.42414 148.918C2.46552 148.918 0.493103 146.945 0.493103 143.987V91.7178C0.493103 82.8419 4.93104 74.4592 11.8345 69.5281C4.93104 64.5971 0 56.7074 0 47.3385C0 32.5454 12.3276 20.2178 27.1207 20.2178C30.0793 20.2178 32.0517 22.6833 32.0517 25.1488C32.0517 28.1074 30.0793 30.0798 27.1207 30.0798C17.7517 30.0798 9.86207 37.9695 9.86207 47.3385C9.86207 56.7074 17.7517 64.5971 27.1207 64.5971H27.6138C30.0793 65.0902 32.0517 67.0626 32.0517 69.5281Z" fill="#7F8A9D"/>
</svg>
