<svg width="40" height="40" viewBox="0 0 40 40" fill="none" xmlns="http://www.w3.org/2000/svg">
<path d="M0 20C0 8.95431 8.95431 0 20 0C31.0457 0 40 8.95431 40 20C40 31.0457 31.0457 40 20 40C8.95431 40 0 31.0457 0 20Z" fill="white"/>
<rect x="16.6854" y="17.1604" width="5.64578" height="11.6249" rx="1.23036" fill="white" stroke="#091E42" stroke-width="0.357224" stroke-linecap="round"/>
<path d="M16.4586 24.3071V20.6567H22.5853C22.1239 22.5286 19.3724 24.4082 16.4586 24.3071Z" fill="#7E7E7E" fill-opacity="0.45"/>
<path d="M15.7535 16.6136C15.7535 17.6548 14.8117 18.5294 13.6102 18.5294C12.4087 18.5294 11.4668 17.6548 11.4668 16.6136C11.4668 15.5723 12.4087 14.6977 13.6102 14.6977C14.8117 14.6977 15.7535 15.5723 15.7535 16.6136Z" fill="white" stroke="#091E42" stroke-width="0.357224"/>
<path d="M23.1659 16.6129C23.1659 17.6542 24.1078 18.5288 25.3093 18.5288C26.5108 18.5288 27.4526 17.6542 27.4526 16.6129C27.4526 15.5717 26.5108 14.697 25.3093 14.697C24.1078 14.697 23.1659 15.5717 23.1659 16.6129Z" fill="white" stroke="#091E42" stroke-width="0.357224"/>
<path d="M25.3985 16.2413C25.3985 18.054 24.8692 19.4353 23.8851 20.3647C22.8995 21.2957 21.4319 21.7978 19.507 21.7978C17.582 21.7978 16.0898 21.2956 15.08 20.3634C14.0724 19.4331 13.5208 18.0518 13.5208 16.2413C13.5208 14.4269 14.0754 12.5334 15.104 11.098C16.1304 9.66567 17.6218 8.69668 19.507 8.69668C21.3915 8.69668 22.8588 9.66499 23.8615 11.0964C24.8666 12.5314 25.3985 14.4253 25.3985 16.2413Z" fill="white" stroke="#091E42" stroke-width="0.357224" stroke-linecap="round"/>
<circle cx="23.0423" cy="15.6785" r="0.178612" fill="white"/>
<path d="M12.3152 11.1318C12.1687 9.16442 12.7171 8.14598 14.3692 7.7449C14.3692 7.7449 19.281 2.88743 23.6124 6.09604C27.9437 9.30464 25.2645 14.7595 25.2645 14.7595C24.2375 13.378 23.7879 13.1011 23.8803 11.3546C20.1435 12.4752 18.5859 12.1433 16.5126 9.83941C16.2429 11.3269 15.9321 11.8629 14.8604 12.4868C15.0522 13.5842 13.9227 14.5367 13.6101 14.8486C12.6131 13.7575 12.4244 12.9593 12.3152 11.1318Z" fill="#091E42"/>
<path d="M16.3626 24.8494C16.4034 24.8305 16.4628 24.8455 16.4924 24.897C17.9509 27.4238 21.4876 27.2255 22.5876 24.9197C22.6171 24.8579 22.6837 24.8395 22.7266 24.8589C25.1659 25.9618 26.7676 27.1349 27.8613 28.6669C28.9562 30.2005 29.5554 32.1122 29.9541 34.7192C29.9623 34.773 29.9201 34.8214 29.8671 34.8214H9.06009C9.00715 34.8214 8.96489 34.7728 8.97336 34.719C9.404 31.9816 10.1125 30.0473 11.2734 28.5342C12.4345 27.0211 14.0615 25.9119 16.3626 24.8494Z" fill="white" stroke="#091E42" stroke-width="0.357224" stroke-linecap="round" stroke-linejoin="round"/>
<path d="M18.5139 26.6992H20.5029V34.8196H18.5139V26.6992Z" fill="#091E42"/>
<ellipse cx="19.5084" cy="29.9475" rx="0.54244" ry="0.541359" fill="white" fill-opacity="0.5"/>
<ellipse cx="19.5084" cy="32.2937" rx="0.54244" ry="0.54136" fill="white" fill-opacity="0.5"/>
<rect x="22.2206" y="30.4895" width="4.97236" height="1.08272" rx="0.541359" fill="#091E42"/>
<path d="M8.8429 34.9946L9.19464 34.5708L29.7146 34.5491L29.9562 35.0391L8.8429 34.9946Z" fill="white"/>
<path d="M20 39C9.50659 39 1 30.4934 1 20H-1C-1 31.598 8.40202 41 20 41V39ZM39 20C39 30.4934 30.4934 39 20 39V41C31.598 41 41 31.598 41 20H39ZM20 1C30.4934 1 39 9.50659 39 20H41C41 8.40202 31.598 -1 20 -1V1ZM20 -1C8.40202 -1 -1 8.40202 -1 20H1C1 9.50659 9.50659 1 20 1V-1Z" fill="#DFE1E5"/>
</svg>
