<svg width="20" height="11" viewBox="0 0 20 11" fill="none" xmlns="http://www.w3.org/2000/svg">
<path d="M9.99967 4.00016L3.49967 10.5002C3.19412 10.8057 2.80523 10.9585 2.33301 10.9585C1.86079 10.9585 1.4719 10.8057 1.16634 10.5002C0.860786 10.1946 0.708008 9.80572 0.708008 9.3335C0.708008 8.86127 0.860786 8.47238 1.16634 8.16683L8.83301 0.500163C8.99967 0.333496 9.18023 0.215441 9.37467 0.145996C9.56912 0.0765515 9.77745 0.0418292 9.99967 0.0418292C10.2219 0.0418292 10.4302 0.0765516 10.6247 0.145996C10.8191 0.215441 10.9997 0.333496 11.1663 0.500163L18.833 8.16683C19.1386 8.47239 19.2913 8.86127 19.2913 9.3335C19.2913 9.80572 19.1386 10.1946 18.833 10.5002C18.5275 10.8057 18.1386 10.9585 17.6663 10.9585C17.1941 10.9585 16.8052 10.8057 16.4997 10.5002L9.99967 4.00016Z" fill="#495973"/>
</svg>
